{"asset":{"version":"2.0","generator":"THREE.GLTFExporter r169"},"scenes":[{"name":"AuxScene","nodes":[0]}],"scene":0,"nodes":[{"mesh":0}],"bufferViews":[{"buffer":0,"byteOffset":0,"byteLength":17232,"target":34962,"byteStride":12},{"buffer":0,"byteOffset":17232,"byteLength":17232,"target":34962,"byteStride":12},{"buffer":0,"byteOffset":34464,"byteLength":17232,"target":34962,"byteStride":12},{"buffer":0,"byteOffset":51696,"byteLength":12144,"target":34963}],"buffers":[{"byteLength":63840,"uri":"data:application/octet-stream;base64,"}],"accessors":[{"bufferView":0,"componentType":5126,"count":1436,"max":[0.01315789483487606,0.3684210479259491,0.5],"min":[-0.01315789483487606,-0.3684210479259491,-0.5],"type":"VEC3"},{"bufferView":1,"componentType":5126,"count":1436,"max":[1,1,1],"min":[-1,-1,-1],"type":"VEC3"},{"bufferView":2,"componentType":5126,"count":1436,"max":[1,1,1],"min":[0.2666666805744171,0.3686274588108063,0.6000000238418579],"type":"VEC3"},{"bufferView":3,"componentType":5125,"count":3036,"max":[1435],"min":[0],"type":"SCALAR"}],"materials":[{"pbrMetallicRoughness":{"metallicFactor":1,"roughnessFactor":1}}],"meshes":[{"primitives":[{"mode":4,"attributes":{"POSITION":0,"NORMAL":1,"COLOR_0":2},"indices":3,"material":0}]}]}