{"asset":{"version":"2.0","generator":"THREE.GLTFExporter r169"},"scenes":[{"name":"AuxScene","nodes":[0]}],"scene":0,"nodes":[{"mesh":0}],"bufferViews":[{"buffer":0,"byteOffset":0,"byteLength":5040,"target":34962,"byteStride":12},{"buffer":0,"byteOffset":5040,"byteLength":5040,"target":34962,"byteStride":12},{"buffer":0,"byteOffset":10080,"byteLength":5040,"target":34962,"byteStride":12},{"buffer":0,"byteOffset":15120,"byteLength":2880,"target":34963}],"buffers":[{"byteLength":18000,"uri":"data:application/octet-stream;base64,"}],"accessors":[{"bufferView":0,"componentType":5126,"count":420,"max":[0.3333333432674408,0.5,0.2666666805744171],"min":[-0.3333333432674408,-0.5,-0.2666666805744171],"type":"VEC3"},{"bufferView":1,"componentType":5126,"count":420,"max":[1,1,1],"min":[-1,-1,-1],"type":"VEC3"},{"bufferView":2,"componentType":5126,"count":420,"max":[1,1,1],"min":[0.0313725508749485,0.32549020648002625,0.003921568859368563],"type":"VEC3"},{"bufferView":3,"componentType":5125,"count":720,"max":[419],"min":[0],"type":"SCALAR"}],"materials":[{"pbrMetallicRoughness":{"metallicFactor":1,"roughnessFactor":1}}],"meshes":[{"primitives":[{"mode":4,"attributes":{"POSITION":0,"NORMAL":1,"COLOR_0":2},"indices":3,"material":0}]}]}