{"asset":{"version":"2.0","generator":"THREE.GLTFExporter r169"},"scenes":[{"name":"AuxScene","nodes":[0]}],"scene":0,"nodes":[{"mesh":0}],"bufferViews":[{"buffer":0,"byteOffset":0,"byteLength":2832,"target":34962,"byteStride":12},{"buffer":0,"byteOffset":2832,"byteLength":2832,"target":34962,"byteStride":12},{"buffer":0,"byteOffset":5664,"byteLength":2832,"target":34962,"byteStride":12},{"buffer":0,"byteOffset":8496,"byteLength":2160,"target":34963}],"buffers":[{"byteLength":10656,"uri":"data:application/octet-stream;base64,"}],"accessors":[{"bufferView":0,"componentType":5126,"count":236,"max":[0.5,0.3199999928474426,0.009999999776482582],"min":[-0.5,-0.3199999928474426,-0.009999999776482582],"type":"VEC3"},{"bufferView":1,"componentType":5126,"count":236,"max":[1,1,1],"min":[-1,-1,-1],"type":"VEC3"},{"bufferView":2,"componentType":5126,"count":236,"max":[0.8980392217636108,0.9960784316062927,0.8980392217636108],"min":[0.003921568859368563,0.20392157137393951,0.003921568859368563],"type":"VEC3"},{"bufferView":3,"componentType":5125,"count":540,"max":[235],"min":[0],"type":"SCALAR"}],"materials":[{"pbrMetallicRoughness":{"metallicFactor":1,"roughnessFactor":1}}],"meshes":[{"primitives":[{"mode":4,"attributes":{"POSITION":0,"NORMAL":1,"COLOR_0":2},"indices":3,"material":0}]}]}