{"asset":{"version":"2.0","generator":"THREE.GLTFExporter r169"},"scenes":[{"name":"AuxScene","nodes":[0]}],"scene":0,"nodes":[{"mesh":0}],"bufferViews":[{"buffer":0,"byteOffset":0,"byteLength":35232,"target":34962,"byteStride":12},{"buffer":0,"byteOffset":35232,"byteLength":35232,"target":34962,"byteStride":12},{"buffer":0,"byteOffset":70464,"byteLength":35232,"target":34962,"byteStride":12},{"buffer":0,"byteOffset":105696,"byteLength":19752,"target":34963}],"buffers":[{"byteLength":125448,"uri":"data:application/octet-stream;base64,"}],"accessors":[{"bufferView":0,"componentType":5126,"count":2936,"max":[0.19512194395065308,0.5,0.24390244483947754],"min":[-0.19512194395065308,-0.5,-0.24390244483947754],"type":"VEC3"},{"bufferView":1,"componentType":5126,"count":2936,"max":[1,1,1],"min":[-1,-1,-1],"type":"VEC3"},{"bufferView":2,"componentType":5126,"count":2936,"max":[1,1,1],"min":[0,0.10980392247438431,0],"type":"VEC3"},{"bufferView":3,"componentType":5125,"count":4938,"max":[2935],"min":[0],"type":"SCALAR"}],"materials":[{"pbrMetallicRoughness":{"metallicFactor":1,"roughnessFactor":1}}],"meshes":[{"primitives":[{"mode":4,"attributes":{"POSITION":0,"NORMAL":1,"COLOR_0":2},"indices":3,"material":0}]}]}