{"asset":{"version":"2.0","generator":"THREE.GLTFExporter r169"},"scenes":[{"name":"AuxScene","nodes":[0]}],"scene":0,"nodes":[{"mesh":0}],"bufferViews":[{"buffer":0,"byteOffset":0,"byteLength":11256,"target":34962,"byteStride":12},{"buffer":0,"byteOffset":11256,"byteLength":11256,"target":34962,"byteStride":12},{"buffer":0,"byteOffset":22512,"byteLength":11256,"target":34962,"byteStride":12},{"buffer":0,"byteOffset":33768,"byteLength":6552,"target":34963}],"buffers":[{"byteLength":40320,"uri":"data:application/octet-stream;base64,"}],"accessors":[{"bufferView":0,"componentType":5126,"count":938,"max":[0.1785714328289032,0.5,0.1785714328289032],"min":[-0.1785714328289032,-0.5,-0.1785714328289032],"type":"VEC3"},{"bufferView":1,"componentType":5126,"count":938,"max":[1,1,1],"min":[-1,-1,-1],"type":"VEC3"},{"bufferView":2,"componentType":5126,"count":938,"max":[1,1,1],"min":[0,0,0],"type":"VEC3"},{"bufferView":3,"componentType":5125,"count":1638,"max":[937],"min":[0],"type":"SCALAR"}],"materials":[{"pbrMetallicRoughness":{"metallicFactor":1,"roughnessFactor":1}}],"meshes":[{"primitives":[{"mode":4,"attributes":{"POSITION":0,"NORMAL":1,"COLOR_0":2},"indices":3,"material":0}]}]}