{"asset":{"version":"2.0","generator":"THREE.GLTFExporter r169"},"scenes":[{"name":"AuxScene","nodes":[0]}],"scene":0,"nodes":[{"mesh":0}],"bufferViews":[{"buffer":0,"byteOffset":0,"byteLength":32304,"target":34962,"byteStride":12},{"buffer":0,"byteOffset":32304,"byteLength":32304,"target":34962,"byteStride":12},{"buffer":0,"byteOffset":64608,"byteLength":32304,"target":34962,"byteStride":12},{"buffer":0,"byteOffset":96912,"byteLength":17976,"target":34963}],"buffers":[{"byteLength":114888,"uri":"data:application/octet-stream;base64,"}],"accessors":[{"bufferView":0,"componentType":5126,"count":2692,"max":[0.15789473056793213,0.5,0.44736841320991516],"min":[-0.15789473056793213,-0.5,-0.44736841320991516],"type":"VEC3"},{"bufferView":1,"componentType":5126,"count":2692,"max":[1,1,1],"min":[-1,-1,-1],"type":"VEC3"},{"bufferView":2,"componentType":5126,"count":2692,"max":[1,1,1],"min":[0.12156862765550613,0.10980392247438431,0.003921568859368563],"type":"VEC3"},{"bufferView":3,"componentType":5125,"count":4494,"max":[2691],"min":[0],"type":"SCALAR"}],"materials":[{"pbrMetallicRoughness":{"metallicFactor":1,"roughnessFactor":1}}],"meshes":[{"primitives":[{"mode":4,"attributes":{"POSITION":0,"NORMAL":1,"COLOR_0":2},"indices":3,"material":0}]}]}