{"asset":{"version":"2.0","generator":"THREE.GLTFExporter r169"},"scenes":[{"name":"AuxScene","nodes":[0]}],"scene":0,"nodes":[{"mesh":0}],"bufferViews":[{"buffer":0,"byteOffset":0,"byteLength":5040,"target":34962,"byteStride":12},{"buffer":0,"byteOffset":5040,"byteLength":5040,"target":34962,"byteStride":12},{"buffer":0,"byteOffset":10080,"byteLength":5040,"target":34962,"byteStride":12},{"buffer":0,"byteOffset":15120,"byteLength":3048,"target":34963}],"buffers":[{"byteLength":18168,"uri":"data:application/octet-stream;base64,"}],"accessors":[{"bufferView":0,"componentType":5126,"count":420,"max":[0.1428571492433548,0.2857142984867096,0.5],"min":[-0.1428571492433548,-0.2857142984867096,-0.5],"type":"VEC3"},{"bufferView":1,"componentType":5126,"count":420,"max":[1,1,1],"min":[-1,-1,-1],"type":"VEC3"},{"bufferView":2,"componentType":5126,"count":420,"max":[0.8901960849761963,0.8784313797950745,0.9058823585510254],"min":[0.12156862765550613,0.12941177189350128,0.16470588743686676],"type":"VEC3"},{"bufferView":3,"componentType":5125,"count":762,"max":[419],"min":[0],"type":"SCALAR"}],"materials":[{"pbrMetallicRoughness":{"metallicFactor":1,"roughnessFactor":1}}],"meshes":[{"primitives":[{"mode":4,"attributes":{"POSITION":0,"NORMAL":1,"COLOR_0":2},"indices":3,"material":0}]}]}