{"asset":{"version":"2.0","generator":"THREE.GLTFExporter r169"},"scenes":[{"name":"AuxScene","nodes":[0]}],"scene":0,"nodes":[{"mesh":0}],"bufferViews":[{"buffer":0,"byteOffset":0,"byteLength":4272,"target":34962,"byteStride":12},{"buffer":0,"byteOffset":4272,"byteLength":4272,"target":34962,"byteStride":12},{"buffer":0,"byteOffset":8544,"byteLength":4272,"target":34962,"byteStride":12},{"buffer":0,"byteOffset":12816,"byteLength":2760,"target":34963}],"buffers":[{"byteLength":15576,"uri":"data:application/octet-stream;base64,"}],"accessors":[{"bufferView":0,"componentType":5126,"count":356,"max":[0.5,0.3055555522441864,0.1111111119389534],"min":[-0.5,-0.3055555522441864,-0.1111111119389534],"type":"VEC3"},{"bufferView":1,"componentType":5126,"count":356,"max":[1,1,1],"min":[-1,-1,-1],"type":"VEC3"},{"bufferView":2,"componentType":5126,"count":356,"max":[1,1,1],"min":[0,0.12941177189350128,0.16470588743686676],"type":"VEC3"},{"bufferView":3,"componentType":5125,"count":690,"max":[355],"min":[0],"type":"SCALAR"}],"materials":[{"pbrMetallicRoughness":{"metallicFactor":1,"roughnessFactor":1}}],"meshes":[{"primitives":[{"mode":4,"attributes":{"POSITION":0,"NORMAL":1,"COLOR_0":2},"indices":3,"material":0}]}]}