{"asset":{"version":"2.0","generator":"THREE.GLTFExporter r169"},"scenes":[{"name":"AuxScene","nodes":[0]}],"scene":0,"nodes":[{"mesh":0}],"bufferViews":[{"buffer":0,"byteOffset":0,"byteLength":34608,"target":34962,"byteStride":12},{"buffer":0,"byteOffset":34608,"byteLength":34608,"target":34962,"byteStride":12},{"buffer":0,"byteOffset":69216,"byteLength":34608,"target":34962,"byteStride":12},{"buffer":0,"byteOffset":103824,"byteLength":19200,"target":34963}],"buffers":[{"byteLength":123024,"uri":"data:application/octet-stream;base64,"}],"accessors":[{"bufferView":0,"componentType":5126,"count":2884,"max":[0.27419355511665344,0.5,0.27419355511665344],"min":[-0.27419355511665344,-0.5,-0.27419355511665344],"type":"VEC3"},{"bufferView":1,"componentType":5126,"count":2884,"max":[1,1,1],"min":[-1,-1,-1],"type":"VEC3"},{"bufferView":2,"componentType":5126,"count":2884,"max":[1,1,1],"min":[0.3176470696926117,0.2705882489681244,0.14509804546833038],"type":"VEC3"},{"bufferView":3,"componentType":5125,"count":4800,"max":[2883],"min":[0],"type":"SCALAR"}],"materials":[{"pbrMetallicRoughness":{"metallicFactor":1,"roughnessFactor":1}}],"meshes":[{"primitives":[{"mode":4,"attributes":{"POSITION":0,"NORMAL":1,"COLOR_0":2},"indices":3,"material":0}]}]}