{"asset":{"version":"2.0","generator":"THREE.GLTFExporter r169"},"scenes":[{"name":"AuxScene","nodes":[0]}],"scene":0,"nodes":[{"mesh":0}],"bufferViews":[{"buffer":0,"byteOffset":0,"byteLength":34632,"target":34962,"byteStride":12},{"buffer":0,"byteOffset":34632,"byteLength":34632,"target":34962,"byteStride":12},{"buffer":0,"byteOffset":69264,"byteLength":34632,"target":34962,"byteStride":12},{"buffer":0,"byteOffset":103896,"byteLength":19344,"target":34963}],"buffers":[{"byteLength":123240,"uri":"data:application/octet-stream;base64,"}],"accessors":[{"bufferView":0,"componentType":5126,"count":2886,"max":[0.265625,0.5,0.265625],"min":[-0.265625,-0.5,-0.265625],"type":"VEC3"},{"bufferView":1,"componentType":5126,"count":2886,"max":[1,1,1],"min":[-1,-1,-1],"type":"VEC3"},{"bufferView":2,"componentType":5126,"count":2886,"max":[1,1,1],"min":[0.48235294222831726,0.38823530077934265,0.003921568859368563],"type":"VEC3"},{"bufferView":3,"componentType":5125,"count":4836,"max":[2885],"min":[0],"type":"SCALAR"}],"materials":[{"pbrMetallicRoughness":{"metallicFactor":1,"roughnessFactor":1}}],"meshes":[{"primitives":[{"mode":4,"attributes":{"POSITION":0,"NORMAL":1,"COLOR_0":2},"indices":3,"material":0}]}]}