{"asset":{"version":"2.0","generator":"THREE.GLTFExporter r169"},"scenes":[{"name":"AuxScene","nodes":[0]}],"scene":0,"nodes":[{"mesh":0}],"bufferViews":[{"buffer":0,"byteOffset":0,"byteLength":40896,"target":34962,"byteStride":12},{"buffer":0,"byteOffset":40896,"byteLength":40896,"target":34962,"byteStride":12},{"buffer":0,"byteOffset":81792,"byteLength":40896,"target":34962,"byteStride":12},{"buffer":0,"byteOffset":122688,"byteLength":21312,"target":34963}],"buffers":[{"byteLength":144000,"uri":"data:application/octet-stream;base64,"}],"accessors":[{"bufferView":0,"componentType":5126,"count":3408,"max":[0.23999999463558197,0.5,0.3799999952316284],"min":[-0.23999999463558197,-0.5,-0.3799999952316284],"type":"VEC3"},{"bufferView":1,"componentType":5126,"count":3408,"max":[1,1,1],"min":[-1,-1,-1],"type":"VEC3"},{"bufferView":2,"componentType":5126,"count":3408,"max":[1,1,1],"min":[0,0.10980392247438431,0],"type":"VEC3"},{"bufferView":3,"componentType":5125,"count":5328,"max":[3407],"min":[0],"type":"SCALAR"}],"materials":[{"pbrMetallicRoughness":{"metallicFactor":1,"roughnessFactor":1}}],"meshes":[{"primitives":[{"mode":4,"attributes":{"POSITION":0,"NORMAL":1,"COLOR_0":2},"indices":3,"material":0}]}]}