{"asset":{"version":"2.0","generator":"THREE.GLTFExporter r169"},"scenes":[{"name":"AuxScene","nodes":[0]}],"scene":0,"nodes":[{"mesh":0}],"bufferViews":[{"buffer":0,"byteOffset":0,"byteLength":34224,"target":34962,"byteStride":12},{"buffer":0,"byteOffset":34224,"byteLength":34224,"target":34962,"byteStride":12},{"buffer":0,"byteOffset":68448,"byteLength":34224,"target":34962,"byteStride":12},{"buffer":0,"byteOffset":102672,"byteLength":20352,"target":34963}],"buffers":[{"byteLength":123024,"uri":"data:application/octet-stream;base64,"}],"accessors":[{"bufferView":0,"componentType":5126,"count":2852,"max":[0.5,0.0069444444961845875,0.1319444477558136],"min":[-0.5,-0.0069444444961845875,-0.1319444477558136],"type":"VEC3"},{"bufferView":1,"componentType":5126,"count":2852,"max":[1,1,1],"min":[-1,-1,-1],"type":"VEC3"},{"bufferView":2,"componentType":5126,"count":2852,"max":[1,0.8117647171020508,0.8705882430076599],"min":[0.5098039507865906,0.3686274588108063,0.0117647061124444],"type":"VEC3"},{"bufferView":3,"componentType":5125,"count":5088,"max":[2851],"min":[0],"type":"SCALAR"}],"materials":[{"pbrMetallicRoughness":{"metallicFactor":1,"roughnessFactor":1}}],"meshes":[{"primitives":[{"mode":4,"attributes":{"POSITION":0,"NORMAL":1,"COLOR_0":2},"indices":3,"material":0}]}]}